<svg width="126" height="32" viewBox="0 0 126 32" fill="none" xmlns="http://www.w3.org/2000/svg">
<path d="M99.682 1.74265C98.4805 3.03663 97.5562 5.99427 97.51 8.67464V10.1535L92.1493 10.2921L86.8348 10.4307L85.1249 14.2202C84.2006 16.2998 83.3225 17.8711 83.1377 17.6862C82.9991 17.5014 82.1672 15.7453 81.3354 13.7581C79.8566 10.3383 79.7179 10.1997 78.1929 10.1997C76.7141 10.1997 76.5754 10.3383 75.0042 13.8967C74.0799 15.9301 73.2019 17.5938 73.017 17.5938C72.8784 17.5938 72.0003 15.9301 71.076 13.8967L69.4124 10.1997H66.8244C64.0516 10.1997 63.9592 10.2459 64.7448 11.6785C65.207 12.5566 65.207 12.5566 63.8668 11.5861C61.1402 9.55269 56.7499 9.50648 54.1158 11.4936C53.4688 11.9558 52.4521 13.1573 51.8976 14.174L50.8346 15.9763V13.0649V10.1997H46.3982H42.0079L40.3442 13.8967C39.42 15.9301 38.5419 17.5938 38.3571 17.5938C38.1722 17.5938 37.2942 15.9301 36.3699 13.8967L34.7062 10.1997H31.8872H29.0682L29.8538 11.6785L30.6395 13.1573L29.1144 11.9096C28.3288 11.2164 27.081 10.5232 26.4341 10.3845C25.7409 10.2459 24.909 10.0148 24.5855 9.9224C23.6151 9.64512 20.1953 10.6618 19.0862 11.5399C15.0656 14.821 15.2967 20.6901 19.5483 23.5091C22.6446 25.5887 27.7742 24.9879 30.1773 22.3075C30.963 21.4295 30.963 21.3833 29.4841 20.5052C28.0053 19.6272 27.9129 19.6272 26.5727 20.459C24.4007 21.7992 21.2582 20.8749 21.2582 18.934C21.2582 18.1484 21.6741 18.0559 26.3416 18.0559C31.4251 18.0559 31.4251 18.0559 31.4251 16.9468C31.4251 16.2998 31.2402 15.2831 30.963 14.6361C30.0387 12.1406 31.0092 13.6195 33.8282 18.9802C36.6934 24.4334 36.7396 24.5258 38.3571 24.5258C39.9745 24.5258 40.0208 24.4334 42.9784 18.8416L45.9823 13.2035L46.1209 18.8416L46.2595 24.5258H48.524H50.8346V21.6143L50.8809 18.7491L51.7589 20.459C54.0696 24.7568 59.8 26.1895 63.913 23.4167C65.9464 22.0303 65.9926 21.1522 64.0978 20.2742C62.7577 19.6272 62.4342 19.6272 61.8796 20.1817C60.6781 21.3833 58.5523 21.4757 57.1659 20.3666C54.7628 18.4718 55.4098 18.0559 61.0016 18.0559H66.085V16.3923C66.085 15.5142 65.8539 14.3127 65.6229 13.7581C64.5138 11.4012 66.2699 14.4051 68.904 19.3499L71.723 24.572L73.2943 24.4334C74.8193 24.2947 75.0042 24.1099 76.3444 21.0598C77.13 19.2575 77.8694 17.6862 78.0542 17.4552C78.2391 17.2703 79.0709 18.7953 79.949 20.8287C81.474 24.4796 81.5202 24.5258 83.1377 24.5258C84.8014 24.5258 84.8014 24.4796 87.8977 18.6105L90.9939 12.7414L91.0402 18.6105V24.5258H93.3508H95.6615V19.2113C95.6615 14.2202 95.7077 13.8967 96.5857 13.8967C97.4638 13.8967 97.51 14.2202 97.51 19.2113V24.5258H100.052H102.593V19.165C102.593 13.9429 102.593 13.8505 103.61 13.9892C104.35 14.0816 105.274 15.2369 106.845 17.9635C108.047 20.0893 109.063 22.0765 109.063 22.3538C109.063 22.5848 108.047 24.7568 106.753 27.1599L104.442 31.4578H107.169H109.941L113.731 24.1561C115.81 20.1817 118.306 15.3756 119.323 13.527L121.125 10.1997H118.352H115.579L113.777 13.9892L112.021 17.8249L109.988 13.9892L107.954 10.1997H105.274H102.547L102.686 7.51931C102.825 4.93137 102.871 4.88515 104.257 4.74652C105.366 4.65409 105.828 4.23817 106.429 3.03663C107.169 1.51159 107.169 1.41916 106.291 0.957031C105.828 0.725964 104.396 0.494898 103.194 0.494898C101.299 0.494898 100.699 0.725964 99.682 1.74265ZM25.9719 13.7581C27.3121 14.9596 26.9424 15.2831 24.031 15.2831C21.1658 15.2831 20.7498 14.9596 21.9976 13.7119C22.9219 12.7414 24.909 12.7876 25.9719 13.7581ZM60.5856 13.4346C61.0478 13.7119 61.4637 14.2202 61.4637 14.5899C61.4637 15.1445 60.8167 15.2831 58.6447 15.2831C55.8257 15.2831 55.7332 15.1907 56.981 13.527C57.5356 12.8338 59.3379 12.7876 60.5856 13.4346Z" fill="white"/>
<path d="M46.9063 2.57444C45.5661 3.86841 45.4737 4.51539 46.4904 5.948C47.276 7.10334 49.7715 7.38061 50.742 6.41014C51.7125 5.43966 51.4352 2.94414 50.2799 2.15852C48.8472 1.14183 48.2003 1.23425 46.9063 2.57444Z" fill="white"/>
<path d="M91.7332 2.57444C90.393 3.86841 90.3006 4.51539 91.3173 5.948C92.1029 7.10334 94.5984 7.38061 95.5689 6.41014C96.5394 5.43966 96.2621 2.94414 95.1068 2.15852C93.6741 1.14183 93.0272 1.23425 91.7332 2.57444Z" fill="white"/>
<path d="M0 13.2035V24.5258H2.31066H4.62132V20.0893C4.62132 17.5938 4.80618 15.7452 5.03724 15.8377C5.26831 15.8839 6.9782 17.9173 8.78052 20.2279L12.0617 24.5258H15.2966H18.5315L14.6034 19.812L10.629 15.1445L12.0154 14.2664C16.1746 11.7709 16.3595 5.25484 12.3389 2.80553C11.0912 2.01991 9.98206 1.88127 5.45316 1.88127H0V13.2035ZM9.05779 6.77987C9.98206 7.65792 10.1669 8.21248 9.93585 9.18296C9.51993 10.9853 8.7343 11.586 6.70092 11.7247L4.85239 11.8171L4.71375 9.3216C4.62132 7.98142 4.66754 6.54881 4.80618 6.22531C5.2221 5.11619 7.76382 5.43969 9.05779 6.77987Z" fill="white"/>
<path d="M120.894 19.6272C120.201 20.2742 119.692 21.1984 119.692 21.753C119.692 22.2613 120.201 23.2318 120.894 23.8788C122.835 25.8198 125.7 24.572 125.7 21.753C125.7 20.1817 124.868 19.1188 123.297 18.7491C122.327 18.5181 121.772 18.7029 120.894 19.6272Z" fill="white"/>
</svg>
